<svg xmlns="http://www.w3.org/2000/svg" enable-background="new 0 0 500 500" viewBox="0 0 500 500"><path fill="#8495a6" d="M313.3,310.3c-1.1,0.7-2.2,1.3-3.3,1.9c-0.1,0-0.2,0.1-0.2,0.1c-1.1,0.6-2.2,1.2-3.4,1.7
		c-0.3,0.2-0.7,0.3-1,0.5c-1.1,0.5-2.2,1-3.3,1.5c-0.2,0.1-0.4,0.2-0.5,0.2c-1.3,0.6-2.7,1.1-4,1.7c-0.3,0.1-0.7,0.3-1,0.4
		c-1.1,0.4-2.3,0.9-3.5,1.3c-0.3,0.1-0.6,0.2-0.9,0.3c-1.5,0.5-2.9,1-4.4,1.5c-0.3,0.1-0.5,0.2-0.8,0.2c-1.3,0.4-2.6,0.8-4,1.2
		c-0.4,0.1-0.8,0.2-1.2,0.3c-1.6,0.5-3.2,0.9-4.9,1.3c0,0,0,0-0.1,0c-1.6,0.4-3.3,0.8-4.9,1.2c-0.4,0.1-0.8,0.2-1.3,0.3
		c-1.5,0.3-3,0.7-4.5,1c-0.2,0-0.4,0.1-0.7,0.1c-1.7,0.4-3.5,0.7-5.3,1.1c-0.4,0.1-0.8,0.2-1.2,0.2c-1.5,0.3-3,0.5-4.5,0.8
		c-0.4,0.1-0.8,0.1-1.2,0.2c-1.8,0.3-3.7,0.6-5.5,0.9c-0.3,0-0.6,0.1-0.9,0.1c-1.6,0.2-3.2,0.5-4.8,0.7c-0.5,0.1-0.9,0.1-1.4,0.2
		c-3.8,0.5-7.6,0.9-11.5,1.3c-0.5,0-1,0.1-1.5,0.1c-1.7,0.2-3.3,0.3-5,0.4c-0.3,0-0.6,0.1-0.9,0.1c-1.9,0.2-3.9,0.3-5.9,0.4
		c-0.5,0-1,0.1-1.5,0.1c-1.6,0.1-3.2,0.2-4.8,0.3c-0.5,0-1,0-1.5,0.1c-2,0.1-3.9,0.2-5.9,0.2c-0.4,0-0.7,0-1.1,0
		c-1.7,0-3.3,0.1-5,0.1c-0.5,0-1.1,0-1.6,0c-2,0-4,0-6,0c-2,0-4,0-6,0c-0.5,0-1.1,0-1.6,0c-1.7,0-3.3-0.1-5-0.1c-0.4,0-0.7,0-1.1,0
		c-2-0.1-3.9-0.1-5.9-0.2c-0.5,0-1,0-1.5-0.1c-1.6-0.1-3.2-0.2-4.8-0.3c-0.5,0-1-0.1-1.5-0.1c-2-0.1-3.9-0.3-5.9-0.4
		c-0.3,0-0.6-0.1-0.9-0.1c-1.7-0.1-3.4-0.3-5-0.4c-0.5,0-1-0.1-1.5-0.1c-3.9-0.4-7.7-0.8-11.5-1.3c-0.5-0.1-0.9-0.1-1.4-0.2
		c-1.6-0.2-3.2-0.4-4.8-0.7c-0.3,0-0.6-0.1-0.9-0.1c-1.9-0.3-3.7-0.6-5.5-0.9c-0.4-0.1-0.8-0.1-1.2-0.2c-1.5-0.3-3-0.5-4.5-0.8
		c-0.4-0.1-0.8-0.2-1.2-0.2c-1.8-0.3-3.5-0.7-5.3-1.1c-0.2,0-0.4-0.1-0.7-0.1c-1.5-0.3-3-0.7-4.5-1c-0.4-0.1-0.8-0.2-1.3-0.3
		c-1.7-0.4-3.3-0.8-4.9-1.2c0,0,0,0-0.1,0c-1.6-0.4-3.3-0.9-4.9-1.3c-0.4-0.1-0.8-0.2-1.2-0.3c-1.3-0.4-2.7-0.8-4-1.2
		c-0.3-0.1-0.5-0.2-0.8-0.2c-1.5-0.5-3-1-4.4-1.5c-0.3-0.1-0.6-0.2-0.9-0.3c-1.2-0.4-2.3-0.9-3.5-1.3c-0.3-0.1-0.7-0.3-1-0.4
		c-1.4-0.5-2.7-1.1-4-1.7c-0.2-0.1-0.4-0.2-0.5-0.2c-1.1-0.5-2.2-1-3.3-1.5c-0.3-0.2-0.7-0.3-1-0.5c-1.1-0.6-2.3-1.1-3.4-1.7
		c-0.1,0-0.2-0.1-0.2-0.1c-1.1-0.6-2.2-1.3-3.3-1.9c-0.3-0.2-0.6-0.4-0.9-0.5c-0.3-0.2-0.7-0.4-1-0.6v40
		c0,13.9,49.3,34.2,126.7,34.2s126.7-20.3,126.7-34.2v-40c-0.3,0.2-0.7,0.4-1,0.6C313.8,309.9,313.6,310.1,313.3,310.3z"/><path fill="#c8d6e4" d="M61.8,243v40c0,13.9,49.3,34.2,126.7,34.2S315.2,297,315.2,283v-0.7c-11.9,2.2-23.7,4.4-35.6,6.5
		c-11,2-15.7-14.8-4.6-16.9c13.4-2.5,26.8-4.9,40.2-7.4V243c-25.8,16.9-76.5,25.6-126.7,25.6C138.3,268.7,87.6,259.9,61.8,243z"/><ellipse cx="188.5" cy="150.9" fill="#c8d6e4" rx="126.7" ry="34.2"/><path fill="#8495a6" d="M313.3,178.2c-1.1,0.7-2.2,1.3-3.3,1.9c-0.1,0-0.2,0.1-0.2,0.1c-1.1,0.6-2.2,1.2-3.4,1.7
		c-0.3,0.2-0.7,0.3-1,0.5c-1.1,0.5-2.2,1-3.3,1.5c-0.2,0.1-0.4,0.2-0.5,0.2c-1.3,0.6-2.7,1.1-4,1.7c-0.3,0.1-0.7,0.3-1,0.4
		c-1.1,0.4-2.3,0.9-3.5,1.3c-0.3,0.1-0.6,0.2-0.9,0.3c-1.5,0.5-2.9,1-4.4,1.5c-0.3,0.1-0.5,0.2-0.8,0.2c-1.3,0.4-2.6,0.8-4,1.2
		c-0.4,0.1-0.8,0.2-1.2,0.3c-1.6,0.5-3.2,0.9-4.9,1.3c0,0,0,0-0.1,0c-1.6,0.4-3.3,0.8-4.9,1.2c-0.4,0.1-0.8,0.2-1.3,0.3
		c-1.5,0.3-3,0.7-4.5,1c-0.2,0-0.4,0.1-0.7,0.1c-1.7,0.4-3.5,0.7-5.3,1.1c-0.4,0.1-0.8,0.2-1.2,0.2c-1.5,0.3-3,0.5-4.5,0.8
		c-0.4,0.1-0.8,0.1-1.2,0.2c-1.8,0.3-3.7,0.6-5.5,0.9c-0.3,0-0.6,0.1-0.9,0.1c-1.6,0.2-3.2,0.5-4.8,0.7c-0.5,0.1-0.9,0.1-1.4,0.2
		c-3.8,0.5-7.6,0.9-11.5,1.3c-0.5,0-1,0.1-1.5,0.1c-1.7,0.2-3.3,0.3-5,0.4c-0.3,0-0.6,0.1-0.9,0.1c-1.9,0.2-3.9,0.3-5.9,0.4
		c-0.5,0-1,0.1-1.5,0.1c-1.6,0.1-3.2,0.2-4.8,0.3c-0.5,0-1,0.1-1.5,0.1c-2,0.1-3.9,0.2-5.9,0.2c-0.4,0-0.7,0-1.1,0
		c-1.7,0-3.3,0.1-5,0.1c-0.5,0-1.1,0-1.6,0c-2,0-4,0-6,0c-2,0-4,0-6,0c-0.5,0-1.1,0-1.6,0c-1.7,0-3.3-0.1-5-0.1c-0.4,0-0.7,0-1.1,0
		c-2-0.1-3.9-0.1-5.9-0.2c-0.5,0-1,0-1.5-0.1c-1.6-0.1-3.2-0.2-4.8-0.3c-0.5,0-1-0.1-1.5-0.1c-2-0.1-3.9-0.3-5.9-0.4
		c-0.3,0-0.6-0.1-0.9-0.1c-1.7-0.1-3.4-0.3-5-0.4c-0.5,0-1-0.1-1.5-0.1c-3.9-0.4-7.7-0.8-11.5-1.3c-0.5-0.1-0.9-0.1-1.4-0.2
		c-1.6-0.2-3.2-0.4-4.8-0.7c-0.3,0-0.6-0.1-0.9-0.1c-1.9-0.3-3.7-0.6-5.5-0.9c-0.4-0.1-0.8-0.1-1.2-0.2c-1.5-0.3-3-0.5-4.5-0.8
		c-0.4-0.1-0.8-0.1-1.2-0.2c-1.8-0.3-3.5-0.7-5.3-1.1c-0.2,0-0.4-0.1-0.7-0.1c-1.5-0.3-3-0.7-4.5-1c-0.4-0.1-0.8-0.2-1.3-0.3
		c-1.7-0.4-3.3-0.8-4.9-1.2c0,0,0,0-0.1,0c-1.6-0.4-3.3-0.9-4.9-1.3c-0.4-0.1-0.8-0.2-1.2-0.3c-1.3-0.4-2.7-0.8-4-1.2
		c-0.3-0.1-0.5-0.2-0.8-0.2c-1.5-0.5-3-1-4.4-1.5c-0.3-0.1-0.6-0.2-0.9-0.3c-1.2-0.4-2.3-0.9-3.5-1.3c-0.3-0.1-0.7-0.3-1-0.4
		c-1.4-0.5-2.7-1.1-4-1.7c-0.2-0.1-0.4-0.2-0.5-0.2c-1.1-0.5-2.2-1-3.3-1.5c-0.3-0.2-0.7-0.3-1-0.5c-1.1-0.6-2.3-1.1-3.4-1.7
		c-0.1,0-0.2-0.1-0.2-0.1c-1.1-0.6-2.2-1.3-3.3-1.9c-0.3-0.2-0.6-0.4-0.9-0.5c-0.3-0.2-0.7-0.4-1-0.6v40
		c0,13.9,49.3,34.2,126.7,34.2s126.7-20.2,126.7-34.2v-40c-0.3,0.2-0.7,0.4-1,0.6C313.8,177.8,313.6,178,313.3,178.2z"/><path fill="#332195" d="M447.2 147.5c-29.6 0-59.2 0-88.8 0-11.3 0-11.3 17.5 0 17.5 29.6 0 59.2 0 88.8 0C458.5 165 458.5 147.5 447.2 147.5zM447.2 172.5c-29.6 0-59.2 0-88.8 0-11.3 0-11.3 17.5 0 17.5 29.6 0 59.2 0 88.8 0C458.5 190 458.5 172.5 447.2 172.5zM358.5 215c12.9 0 25.8 0 38.8 0 11.3 0 11.3-17.5 0-17.5-12.9 0-25.8 0-38.8 0C347.2 197.5 347.2 215 358.5 215z"/><path fill="#332195" d="M406.4,223.9c-7.6,9.9-15.1,25.4-27.7,29c-9,2.6-19,3.5-28.3,5.2c-5.9,1.1-11.8,2.2-17.7,3.2V217v-66.1
		c0-33.9-72.5-51.7-144.2-51.7S44.3,117,44.3,150.9V217V283v66.1c0,33.9,72.5,51.7,144.2,51.7s144.2-17.8,144.2-51.7V283v-3.9
		c9.6-1.8,19.1-3.5,28.7-5.3c9.8-1.8,21.9-2.4,30.8-7.3c12.4-6.8,21-22.9,29.3-33.8C428.3,223.8,413.1,215,406.4,223.9z
		 M315.2,349.1c0,13.9-49.3,34.2-126.7,34.2S61.8,363,61.8,349.1v-40c0.3,0.2,0.7,0.4,1,0.6c0.3,0.2,0.6,0.4,0.9,0.5
		c1.1,0.7,2.2,1.3,3.3,1.9c0.1,0,0.2,0.1,0.2,0.1c1.1,0.6,2.2,1.2,3.4,1.7c0.3,0.2,0.7,0.3,1,0.5c1.1,0.5,2.2,1,3.3,1.5
		c0.2,0.1,0.4,0.2,0.5,0.2c1.3,0.6,2.7,1.1,4,1.7c0.3,0.1,0.7,0.3,1,0.4c1.1,0.4,2.3,0.9,3.5,1.3c0.3,0.1,0.6,0.2,0.9,0.3
		c1.5,0.5,2.9,1,4.4,1.5c0.3,0.1,0.5,0.2,0.8,0.2c1.3,0.4,2.6,0.8,4,1.2c0.4,0.1,0.8,0.2,1.2,0.3c1.6,0.5,3.2,0.9,4.9,1.3
		c0,0,0,0,0.1,0c1.6,0.4,3.3,0.8,4.9,1.2c0.4,0.1,0.8,0.2,1.3,0.3c1.5,0.3,3,0.7,4.5,1c0.2,0,0.4,0.1,0.7,0.1
		c1.7,0.4,3.5,0.7,5.3,1.1c0.4,0.1,0.8,0.2,1.2,0.2c1.5,0.3,3,0.5,4.5,0.8c0.4,0.1,0.8,0.1,1.2,0.2c1.8,0.3,3.7,0.6,5.5,0.9
		c0.3,0,0.6,0.1,0.9,0.1c1.6,0.2,3.2,0.5,4.8,0.7c0.5,0.1,0.9,0.1,1.4,0.2c3.8,0.5,7.6,0.9,11.5,1.3c0.5,0,1,0.1,1.5,0.1
		c1.7,0.2,3.3,0.3,5,0.4c0.3,0,0.6,0.1,0.9,0.1c1.9,0.2,3.9,0.3,5.9,0.4c0.5,0,1,0.1,1.5,0.1c1.6,0.1,3.2,0.2,4.8,0.3
		c0.5,0,1,0,1.5,0.1c2,0.1,3.9,0.2,5.9,0.2c0.4,0,0.7,0,1.1,0c1.7,0,3.3,0.1,5,0.1c0.5,0,1.1,0,1.6,0c2,0,4,0,6,0c2,0,4,0,6,0
		c0.5,0,1.1,0,1.6,0c1.7,0,3.3-0.1,5-0.1c0.4,0,0.7,0,1.1,0c2-0.1,3.9-0.1,5.9-0.2c0.5,0,1,0,1.5-0.1c1.6-0.1,3.2-0.2,4.8-0.3
		c0.5,0,1-0.1,1.5-0.1c2-0.1,3.9-0.3,5.9-0.4c0.3,0,0.6-0.1,0.9-0.1c1.7-0.1,3.3-0.3,5-0.4c0.5,0,1-0.1,1.5-0.1
		c3.9-0.4,7.7-0.8,11.5-1.3c0.5-0.1,1-0.1,1.4-0.2c1.6-0.2,3.2-0.4,4.8-0.7c0.3,0,0.6-0.1,0.9-0.1c1.9-0.3,3.7-0.6,5.5-0.9
		c0.4-0.1,0.8-0.1,1.2-0.2c1.5-0.3,3-0.5,4.5-0.8c0.4-0.1,0.8-0.2,1.2-0.2c1.8-0.3,3.5-0.7,5.3-1.1c0.2,0,0.4-0.1,0.7-0.1
		c1.5-0.3,3-0.7,4.5-1c0.4-0.1,0.8-0.2,1.3-0.3c1.7-0.4,3.3-0.8,4.9-1.2c0,0,0,0,0.1,0c1.6-0.4,3.3-0.9,4.9-1.3
		c0.4-0.1,0.8-0.2,1.2-0.3c1.3-0.4,2.7-0.8,4-1.2c0.3-0.1,0.5-0.2,0.8-0.2c1.5-0.5,3-1,4.4-1.5c0.3-0.1,0.6-0.2,0.9-0.3
		c1.2-0.4,2.4-0.9,3.5-1.3c0.3-0.1,0.7-0.3,1-0.4c1.4-0.5,2.7-1.1,4-1.7c0.2-0.1,0.4-0.2,0.5-0.2c1.1-0.5,2.2-1,3.3-1.5
		c0.3-0.2,0.7-0.3,1-0.5c1.1-0.6,2.3-1.1,3.4-1.7c0.1,0,0.2-0.1,0.2-0.1c1.1-0.6,2.2-1.3,3.3-1.9c0.3-0.2,0.6-0.4,0.9-0.5
		c0.3-0.2,0.7-0.4,1-0.6V349.1z M315.2,264.6c-13.4,2.5-26.8,4.9-40.2,7.4c-11.1,2-6.4,18.9,4.6,16.9c11.9-2.2,23.7-4.4,35.6-6.5
		v0.7c0,13.9-49.3,34.2-126.7,34.2S61.8,297,61.8,283v-40c25.8,16.9,76.5,25.6,126.7,25.6c50.2,0,100.9-8.7,126.7-25.6V264.6z
		 M315.2,217c0,13.9-49.3,34.2-126.7,34.2S61.8,230.9,61.8,217v-40c0.3,0.2,0.7,0.4,1,0.6c0.3,0.2,0.6,0.4,0.9,0.5
		c1.1,0.7,2.2,1.3,3.3,1.9c0.1,0,0.2,0.1,0.2,0.1c1.1,0.6,2.2,1.2,3.4,1.7c0.3,0.2,0.7,0.3,1,0.5c1.1,0.5,2.2,1,3.3,1.5
		c0.2,0.1,0.4,0.2,0.5,0.2c1.3,0.6,2.7,1.1,4,1.7c0.3,0.1,0.7,0.3,1,0.4c1.1,0.4,2.3,0.9,3.5,1.3c0.3,0.1,0.6,0.2,0.9,0.3
		c1.5,0.5,2.9,1,4.4,1.5c0.3,0.1,0.5,0.2,0.8,0.2c1.3,0.4,2.6,0.8,4,1.2c0.4,0.1,0.8,0.2,1.2,0.3c1.6,0.5,3.2,0.9,4.9,1.3
		c0,0,0,0,0.1,0c1.6,0.4,3.3,0.8,4.9,1.2c0.4,0.1,0.8,0.2,1.3,0.3c1.5,0.3,3,0.7,4.5,1c0.2,0,0.4,0.1,0.7,0.1
		c1.7,0.4,3.5,0.7,5.3,1.1c0.4,0.1,0.8,0.2,1.2,0.2c1.5,0.3,3,0.5,4.5,0.8c0.4,0.1,0.8,0.1,1.2,0.2c1.8,0.3,3.7,0.6,5.5,0.9
		c0.3,0,0.6,0.1,0.9,0.1c1.6,0.2,3.2,0.5,4.8,0.7c0.5,0.1,0.9,0.1,1.4,0.2c3.8,0.5,7.6,0.9,11.5,1.3c0.5,0,1,0.1,1.5,0.1
		c1.7,0.2,3.3,0.3,5,0.4c0.3,0,0.6,0.1,0.9,0.1c1.9,0.2,3.9,0.3,5.9,0.4c0.5,0,1,0.1,1.5,0.1c1.6,0.1,3.2,0.2,4.8,0.3
		c0.5,0,1,0.1,1.5,0.1c2,0.1,3.9,0.2,5.9,0.2c0.4,0,0.7,0,1.1,0c1.7,0,3.3,0.1,5,0.1c0.5,0,1.1,0,1.6,0c2,0,4,0,6,0c2,0,4,0,6,0
		c0.5,0,1.1,0,1.6,0c1.7,0,3.3-0.1,5-0.1c0.4,0,0.7,0,1.1,0c2-0.1,3.9-0.1,5.9-0.2c0.5,0,1,0,1.5-0.1c1.6-0.1,3.2-0.2,4.8-0.3
		c0.5,0,1-0.1,1.5-0.1c2-0.1,3.9-0.3,5.9-0.4c0.3,0,0.6-0.1,0.9-0.1c1.7-0.1,3.3-0.3,5-0.4c0.5,0,1-0.1,1.5-0.1
		c3.9-0.4,7.7-0.8,11.5-1.3c0.5-0.1,1-0.1,1.4-0.2c1.6-0.2,3.2-0.4,4.8-0.7c0.3,0,0.6-0.1,0.9-0.1c1.9-0.3,3.7-0.6,5.5-0.9
		c0.4-0.1,0.8-0.1,1.2-0.2c1.5-0.3,3-0.5,4.5-0.8c0.4-0.1,0.8-0.1,1.2-0.2c1.8-0.3,3.5-0.7,5.3-1.1c0.2,0,0.4-0.1,0.7-0.1
		c1.5-0.3,3-0.7,4.5-1c0.4-0.1,0.8-0.2,1.3-0.3c1.7-0.4,3.3-0.8,4.9-1.2c0,0,0,0,0.1,0c1.6-0.4,3.3-0.9,4.9-1.3
		c0.4-0.1,0.8-0.2,1.2-0.3c1.3-0.4,2.7-0.8,4-1.2c0.3-0.1,0.5-0.2,0.8-0.2c1.5-0.5,3-1,4.4-1.5c0.3-0.1,0.6-0.2,0.9-0.3
		c1.2-0.4,2.4-0.9,3.5-1.3c0.3-0.1,0.7-0.3,1-0.4c1.4-0.5,2.7-1.1,4-1.7c0.2-0.1,0.4-0.2,0.5-0.2c1.1-0.5,2.2-1,3.3-1.5
		c0.3-0.2,0.7-0.3,1-0.5c1.1-0.6,2.3-1.1,3.4-1.7c0.1,0,0.2-0.1,0.2-0.1c1.1-0.6,2.2-1.3,3.3-1.9c0.3-0.2,0.6-0.4,0.9-0.5
		c0.3-0.2,0.7-0.4,1-0.6V217z M188.5,185.1c-77.3,0-126.7-20.3-126.7-34.2s49.3-34.2,126.7-34.2s126.7,20.3,126.7,34.2
		S265.8,185.1,188.5,185.1z"/></svg>